# xmcd
#
# Track frame offsets: 
#        150
#        14618
#        29155
#        41152
#        59498
#        72732
#        89155
#        102861
#        118057
#        137087
#        153012
#
# Disc length: 2186 seconds
#
# Revision: 0
# Processed by: cddbd v1.5.2PL0 Copyright (c) Steve Scherf et al.
# Submitted via: ExactAudioCopy v0.95b4
#
DISCID=a608880b
DTITLE=Becky Schlegel - For All The World To See
DYEAR=2007
DGENRE=Bluegrass
TTITLE0=For All The World To See
TTITLE1=Bound For Tennessee
TTITLE2=Best Time Of The Day
TTITLE3=Why Maybe
TTITLE4=I Need Your Love
TTITLE5=Jenny
TTITLE6=Lonely
TTITLE7=99%
TTITLE8=Spotlight
TTITLE9=Sound Of Your Voice
TTITLE10=Hills Of South Dakota
EXTD=
EXTT0=
EXTT1=
EXTT2=
EXTT3=
EXTT4=
EXTT5=
EXTT6=
EXTT7=
EXTT8=
EXTT9=
EXTT10=
PLAYORDER=
